 <svg className=""
                  width="42"
                  height="38"
                  fill="none"
                  xmlns="http://www.w3.org/2000/svg"
                >
                  <path
                    d="M5.7466 28.7259c1.5402 1.0743 4.0373 1.0743 5.5775 0 1.5401-1.0743 1.5401-2.8161 0-3.8904-1.5402-1.0743-4.0373-1.0743-5.5775 0-1.5402 1.0743-1.5402 2.8161 0 3.8904Z"
                    className="ccustom"
                    fill="#25CAAC"
                  />
                  <path
                    d="M21.7322 14.1371c2.3103 1.6114 6.0559 1.6114 8.3662 0 2.3102-1.6115 2.3102-4.2241 0-5.8355-2.3103-1.6115-6.0559-1.6115-8.3662 0-2.3102 1.6114-2.3102 4.224 0 5.8355Z"
                    className="ccustom"
                    fill="#25CAAC"
                  />
                  <path
                    d="M13.2464 21.4315c1.9252 1.3428 5.0466 1.3428 6.9718 0 1.9252-1.3429 1.9252-3.5201 0-4.863-1.9252-1.3428-5.0466-1.3428-6.9718 0-1.9252 1.3429-1.9252 3.5201 0 4.863Z"
                    className="ccustom"
                    fill="#25CAAC"
                  />
                  <path
                    d="M.8663 20.4589c1.1552.8057 3.028.8057 4.1831 0 1.1551-.8057 1.1551-2.112 0-2.9178-1.1551-.8057-3.028-.8057-4.183 0-1.1552.8058-1.1552 2.1121 0 2.9178Z"
                    className="ccustom"
                    fill="#25CAAC"
                  />
                  <path
                    d="M13.2464 5.87c1.9252 1.343 5.0466 1.343 6.9718 0 1.9252-1.3428 1.9252-3.52 0-4.8628-1.9252-1.343-5.0466-1.343-6.9718 0-1.9252 1.3428-1.9252 3.52 0 4.8629Z"
                    className="ccustom"
                    fill="#25CAAC"
                  />
                  <path
                    d="M5.7466 13.1645c1.5402 1.0743 4.0373 1.0743 5.5775 0 1.5401-1.0743 1.5401-2.8161 0-3.8903-1.5402-1.0743-4.0373-1.0743-5.5775 0-1.5402 1.0742-1.5401 2.816 0 3.8903Z"
                    className="ccustom"
                    fill="#25CAAC"
                  />
                  <path
                    d="M13.2464 36.9929c1.9252 1.3428 5.0466 1.3428 6.9718 0 1.9252-1.3429 1.9252-3.5201 0-4.863-1.9252-1.3428-5.0466-1.3428-6.9718 0-1.9252 1.3429-1.9252 3.5201 0 4.863Z"
                    className="ccustom"
                    fill="#25CAAC"
                  />
                  <path
                    d="M31.9011 21.9178c2.3103 1.6114 6.056 1.6114 8.3662 0 2.3103-1.6114 2.3103-4.2241 0-5.8355-2.3102-1.6115-6.0559-1.6115-8.3662 0-2.3102 1.6114-2.3102 4.2241 0 5.8355Z"
                    className="ccustom"
                    fill="#25CAAC"
                  />
                  <path
                    d="M21.7322 29.6984c2.3103 1.6115 6.0559 1.6115 8.3662 0 2.3102-1.6114 2.3102-4.224 0-5.8355-2.3103-1.6114-6.0559-1.6114-8.3662 0-2.3102 1.6115-2.3102 4.2241 0 5.8355Z"
                    className="ccustom"
                    fill="#25CAAC"
                  />
                </svg>